# xmcd
#
# Track frame offsets: 
#        150
#        21854
#        50043
#        73539
#        96165
#        119173
#        140675
#        163885
#        186360
#        206952
#        231103
#
# Disc length: 3363 seconds
#
# Revision: 0
# Processed by: cddbd v1.5.2PL0 Copyright (c) Steve Scherf et al.
# Submitted via: ExactAudioCopyFreeDBPlugin 1.0
#
DISCID=af0d210b
DTITLE=Quang Le - Chuyen Tinh Hoa 10 Gio
DYEAR=2013
DGENRE=Country
TTITLE0=Thiep Hong Bao Tinh
TTITLE1=Chuyen Tinh Khong Di Vang
TTITLE2=Neo Dau Ben Que
TTITLE3=Doi Mat Nguoi Xua
TTITLE4=Chuyen Tinh Hoa 10 Gio
TTITLE5=Mat Nhau Roi
TTITLE6=Xin Thoi Gian Qua Mau
TTITLE7=Tien Nguoi Di
TTITLE8=Nguoi Em Vi Da
TTITLE9=Ta Ao Cuoi
TTITLE10=Toi Van Nho
EXTD=
EXTT0=
EXTT1=
EXTT2=
EXTT3=
EXTT4=
EXTT5=
EXTT6=
EXTT7=
EXTT8=
EXTT9=
EXTT10=
PLAYORDER=
